<?xml version="1.0" encoding="utf-8"?>
<!-- Generator: Adobe Illustrator 24.1.3, SVG Export Plug-In . SVG Version: 6.00 Build 0)  -->
<svg version="1.1" id="Layer_1" xmlns="http://www.w3.org/2000/svg" xmlns:xlink="http://www.w3.org/1999/xlink" x="0px" y="0px"
	 viewBox="0 0 108 32" style="enable-background:new 0 0 108 32;" xml:space="preserve">
<style type="text/css">
	.st0{fill:#BC616C;}
</style>
<desc>Created with Sketch.</desc>
<g id="Final">
	<g id="final_music_festival_171024-copy" transform="translate(-279.000000, -3914.000000)">
		<g id="Group-6" transform="translate(279.000000, 3914.000000)">
			<g id="Group-5">
				<g id="noun_677842_cc">
					<g id="Group">
						<g id="Group-13">
							<path id="Shape" class="st0" d="M25.5,0.2c-11.1,0-20.8,6-25.3,14.9c-0.3,0.5-0.3,1.1,0,1.6c4.5,8.9,14.2,14.9,25.3,14.9
								s20.8-6.1,25.3-14.9c0.3-0.5,0.3-1.1,0-1.6C46.3,6.3,36.6,0.2,25.5,0.2L25.5,0.2z M18.2,4.7c-3.6,2.4-6,6.5-6,11.2
								s2.4,8.8,6,11.2c-6.3-1.8-11.5-5.9-14.4-11.2C6.7,10.6,11.9,6.6,18.2,4.7L18.2,4.7z M32.8,4.7c6.3,1.8,11.5,5.9,14.4,11.2
								c-3,5.3-8.2,9.4-14.4,11.2c3.6-2.4,6-6.5,6-11.2C38.8,11.3,36.4,7.1,32.8,4.7z M25.5,6c5.5,0,9.9,4.4,9.9,9.9
								s-4.4,9.9-9.9,9.9s-9.9-4.4-9.9-9.9C15.6,10.4,20,6,25.5,6z"/>
							<path id="Shape_1_" class="st0" d="M82.5,0.2c-11.1,0-20.8,6-25.3,14.9c-0.3,0.5-0.3,1.1,0,1.6c4.5,8.9,14.2,14.9,25.3,14.9
								s20.8-6.1,25.3-14.9c0.3-0.5,0.3-1.1,0-1.6C103.3,6.3,93.6,0.2,82.5,0.2L82.5,0.2z M75.2,4.7c-3.6,2.4-6,6.5-6,11.2
								s2.4,8.8,6,11.2c-6.3-1.8-11.5-5.9-14.4-11.2C63.7,10.6,68.9,6.6,75.2,4.7L75.2,4.7z M89.8,4.7c6.3,1.8,11.5,5.9,14.4,11.2
								c-3,5.3-8.2,9.4-14.4,11.2c3.6-2.4,6-6.5,6-11.2C95.8,11.3,93.4,7.1,89.8,4.7z M82.5,6c5.5,0,9.9,4.4,9.9,9.9
								s-4.4,9.9-9.9,9.9s-9.9-4.4-9.9-9.9S77,6,82.5,6z"/>
						</g>
					</g>
				</g>
			</g>
		</g>
	</g>
</g>
</svg>
