<svg xmlns="http://www.w3.org/2000/svg" viewBox="0 0 266 257.88"><defs><style>.cls-1{fill:#1a1a1a;}</style></defs><g id="Layer_2" data-name="Layer 2"><g id="Layer_1-2" data-name="Layer 1"><path class="cls-1" d="M178.16,4.6h0a19.29,19.29,0,0,1,30.69,8.29h0a19.3,19.3,0,0,0,19.66,12.82h0a19.3,19.3,0,0,1,20,24.74h0a19.3,19.3,0,0,0,8.36,21.93h0a19.29,19.29,0,0,1,1.6,31.75h0a19.31,19.31,0,0,0-6.12,22.66h0A19.29,19.29,0,0,1,235,153.41h0a19.3,19.3,0,0,0-18.27,14.73h0A19.3,19.3,0,0,1,187,179.48h0a19.29,19.29,0,0,0-23.44,1.18h0a19.3,19.3,0,0,1-30.69-8.29h0a19.29,19.29,0,0,0-19.66-12.82h0a19.29,19.29,0,0,1-20-24.74h0a19.28,19.28,0,0,0-8.37-21.93h0a19.3,19.3,0,0,1-1.6-31.75h0a19.29,19.29,0,0,0,6.12-22.66h0a19.29,19.29,0,0,1,17.37-26.62h0A19.28,19.28,0,0,0,125,17.11h0a19.3,19.3,0,0,1,29.7-11.33h0A19.3,19.3,0,0,0,178.16,4.6Z"/><path class="cls-1" d="M147.64,154.47l40.13,93.72,46.91-18.67s-1.35-12.84-13.75-14.6-19.48,3.58-19.48,3.58l-32.21-68.63"/><path class="cls-1" d="M116.06,138.19l-16,31.41L57,153.81,38.54,193.64s11.49,4,17.91-1.33,10.17-13.9,10.17-13.9l48.66,19.27,22.54-47.9"/><path class="cls-1" d="M127.81,242.74c0,8.37-32.67,15.14-59.41,15.14S0,251.11,0,242.74,41.67,227.6,68.4,227.6,127.81,234.38,127.81,242.74Z"/></g></g></svg>