<?xml version="1.0" encoding="utf-8"?>
<!-- Generator: Adobe Illustrator 24.1.3, SVG Export Plug-In . SVG Version: 6.00 Build 0)  -->
<svg version="1.1" id="Layer_1" xmlns="http://www.w3.org/2000/svg" xmlns:xlink="http://www.w3.org/1999/xlink" x="0px" y="0px"
	 viewBox="0 0 62 88" style="enable-background:new 0 0 62 88;" xml:space="preserve">
<style type="text/css">
	.st0{fill-rule:evenodd;clip-rule:evenodd;fill:#BC616C;}
</style>
<desc>Created with Sketch.</desc>
<g id="Final">
	<g id="final_music_festival_171024-copy" transform="translate(-1026.000000, -4096.000000)">
		<g id="Group-6" transform="translate(279.000000, 3914.000000)">
			<g id="Group-4" transform="translate(113.000000, 79.000000)">
				<path id="Fill-1" class="st0" d="M671.2,112.4c0,0.1,0,0.1,0.1,0.2l1.4,25.5c2.8,3.3,5.9,6.8,7.8,8.9l-2.8-27v-0.1l-1.1-10.2
					c0-0.3-0.3-1.8-1.1-2.3c-0.2-0.1-0.7-0.4-1.9-0.2C670.5,108,671.2,112.2,671.2,112.4L671.2,112.4z M690.9,125.6
					c-1.4-0.7-2.1-0.1-2.4,0.3v0.1l-3,22.4l6.7-20.7C692.3,127.3,692.2,126.2,690.9,125.6L690.9,125.6z M686,113.3
					c-0.2-0.2-0.5-0.4-1-0.5l-0.5-0.1c-1.7-0.1-2.5,2.3-2.6,2.6l-0.9,4.5l2,19.3l3.3-24.2C686.4,114.8,686.5,113.8,686,113.3
					L686,113.3z M648.1,143.5c0.1,0.1,0.1,0.2,0,0.3l1.3,7.9c0.1,0.7,1.3,6,8.2,4.9c1.4-0.2,3.3-3.3,4.4-5.6l-4.8-9.2l-9.7,0.6
					C647.8,142.8,647.9,143.2,648.1,143.5L648.1,143.5z M654,186.8c-0.2-0.6-3.2-5.3-5.9-7.3c-8.8-7.2-9-12.6-9.7-15.4l-2-6.6
					c-0.1-0.2-0.1-0.5-0.1-0.7l-1.4-13.7l0.1-0.4c0.1-0.3,0.7-2.4,3.9-3.4c-0.9-1.1-1.3-2.6-1-4.1c0.7-4.1,4.7-5.5,6.6-5.6l15.7-1.3
					c1.4-0.4,3.9-0.3,5.8,2.1c0.6,0.7,1.6,1.9,2.7,3.3l-1.1-20.9c-0.4-2.7,0.1-8,5-9c2.3-0.5,3.9,0.1,4.8,0.7
					c2.2,1.6,2.5,4.5,2.6,4.8l0.2,1.9c1.1-1.2,2.5-2.1,4.5-2.1c2.2,0.1,3.4,1,4,1.9c1.6,1.9,1.2,4.3,1.1,4.5l-0.9,6.1
					c1-0.1,2.1,0,3.5,0.6c3.1,1.6,3.4,4.7,3.2,6.1v0.2l-10.5,32c-0.1,1.2-0.3,2.3-0.6,3.5l-5,26.2l-3.5-0.6l5-26.2v-0.1
					c2.1-7.9-1.3-11.8-1.5-11.9c0,0-0.1,0-0.1-0.1c-0.5-0.6-12.7-14.4-16.1-18.6c-0.9-1.1-2.1-0.9-2.2-0.8s-0.2,0.1-0.3,0l-15.9,1.4
					c-0.1,0-3,0.2-3.4,2.6c-0.1,0.7,0.1,1.2,0.3,1.4c0.9,1.1,3.3,1.5,4.1,1.6l12.4-0.8c0.7-0.1,1.3,0.3,1.7,0.9l5.8,10.9
					c0.2,0.5,0.2,1,0.1,1.5c-0.1,0.3-3.1,5.9-5.7,7.6c-3.6,2.4-7.2,1-7.9,0.6c-1.8-0.6-3.1-1.7-3.9-2.8c-1.7-2-2.1-4.3-2.2-4.5
					l-1.2-7.8c-0.2-0.5-1.1-2.1-3.5-1.9c-1.9,0.1-2.5,0.8-2.7,1l1.5,13.1l2,6.3c0,0,0.2,6.9,8.3,13.5c3.8,2.7,4.9,5.1,6.6,7.9
					L654,186.8z"/>
			</g>
		</g>
	</g>
</g>
</svg>
